<svg xmlns="http://www.w3.org/2000/svg" xmlns:xlink="http://www.w3.org/1999/xlink" width="120" height="67.143" viewBox="0 0 120 67.143">
  <defs>
    <linearGradient id="linear-gradient" y1="0.5" x2="1" y2="0.5" gradientUnits="objectBoundingBox">
      <stop offset="0" stop-color="#fff"/>
      <stop offset="0.569" stop-color="#00376c"/>
      <stop offset="1" stop-color="#00376c"/>
    </linearGradient>
    <linearGradient id="linear-gradient-2" y1="0.5" x2="1" y2="0.5" gradientUnits="objectBoundingBox">
      <stop offset="0" stop-color="#00376c"/>
      <stop offset="1" stop-color="#fff"/>
    </linearGradient>
  </defs>
  <g id="Group_6" data-name="Group 6" transform="translate(-249.812 -201.885)">
    <g id="Group_3" data-name="Group 3" transform="translate(272.901 216.694)">
      <path id="Path_17" data-name="Path 17" d="M331.3,261.753a1.931,1.931,0,0,1-1.888-2.534,3.286,3.286,0,0,1,3.347-2.82h5.282c2.427,0,3.49,1.713,3.027,3.89l-1.563,7.352c-.349,1.642-1.292,3.39-3.576,3.39a2.007,2.007,0,0,1-2.174-2.533l.152-.714h-.071c-1.733,2.106-5.223,3.247-8.042,3.247-5.746,0-11.867-3.1-9.667-13.454,2.063-9.707,10-13.454,15.779-13.454,8.28,0,9.648,4.14,9.223,6.138a4.861,4.861,0,0,1-4.692,3.6c-2.641,0-2.007-3.319-5.611-3.319-2.748,0-5.429,2.034-6.521,7.173-.926,4.354-.332,7.1,3.808,7.1a5.344,5.344,0,0,0,5.185-3.069Z" transform="translate(-315.667 -244.123)" fill="#00376c"/>
      <path id="Path_18" data-name="Path 18" d="M395.84,252.491c-2.32,0-3.066-1.356-2.649-3.319s1.741-3.319,4.346-3.319h17.559c2.605,0,3.352,1.356,2.935,3.319a3.873,3.873,0,0,1-4.06,3.319h-4.961l-3.209,15.1c-.584,2.748-2.511,4.425-5.045,4.425s-3.748-1.677-3.164-4.425l3.209-15.1Z" transform="translate(-365.939 -245.246)" fill="#00376c"/>
      <path id="Path_19" data-name="Path 19" d="M470.276,261.218l-5.127-1.57c-3.854-1.178-5.587-3.6-4.82-7.209.91-4.283,4.623-8.315,11.76-8.315,4.747,0,10.642,1.142,9.725,5.46a4.209,4.209,0,0,1-4.26,3.248c-2.748,0-2.116-3.141-6.184-3.141-1.392,0-2.79.535-3.041,1.713-.243,1.142.65,1.642,2.3,2.106l4,1.142c4.068,1.178,6.605,3.176,5.657,7.637-1.3,6.1-7.1,8.744-12.53,8.744-8.636,0-10.458-3.854-9.965-6.174a4.236,4.236,0,0,1,4.175-3.355c2.927,0,2.487,3.747,6.52,3.747,1.677,0,3.3-.571,3.632-2.141C472.342,262.074,471.683,261.646,470.276,261.218Z" transform="translate(-407.917 -244.123)" fill="#00376c"/>
    </g>
    <g id="Group_5" data-name="Group 5" transform="translate(272.665 246.495)">
      <g id="Group_4" data-name="Group 4" transform="translate(0 0)">
        <path id="Path_20" data-name="Path 20" d="M318.119,329.122c1.319,0,1.865.828,1.76,1.319a.6.6,0,0,1-.629.519c-.667,0-.276-.912-1.328-.912a1.914,1.914,0,0,0-1.684,1.718c-.2.919,0,1.719.995,1.719.9,0,1.09-.968,1.644-.968.28,0,.527.161.467.442a2.383,2.383,0,0,1-2.308,1.452c-1.578,0-2.318-.9-1.948-2.644A3.14,3.14,0,0,1,318.119,329.122Z" transform="translate(-314.994 -329.122)" fill="#5b76a2"/>
        <path id="Path_21" data-name="Path 21" d="M337.289,329.122c1.655,0,2.319,1.1,2,2.581a3.218,3.218,0,0,1-3.129,2.707c-1.809,0-2.3-1.178-1.977-2.707A3.1,3.1,0,0,1,337.289,329.122Zm-.928,4.363c1.045,0,1.576-.814,1.782-1.781s-.111-1.656-1.05-1.656a1.831,1.831,0,0,0-1.755,1.656C335.131,332.671,335.28,333.485,336.36,333.485Z" transform="translate(-327.397 -329.122)" fill="#5b76a2"/>
        <path id="Path_22" data-name="Path 22" d="M355.586,329.876a.767.767,0,0,1,.866-.674.5.5,0,0,1,.511.3l1.322,3.247h.014l.637-2.995a.641.641,0,0,1,.672-.554c.344,0,.515.183.436.554l-.843,3.963a.784.784,0,0,1-.832.716c-.365,0-.468-.077-.566-.309l-1.327-3.156h-.014l-.62,2.911a.641.641,0,0,1-.672.554c-.344,0-.515-.182-.436-.554Z" transform="translate(-340.788 -329.174)" fill="#5b76a2"/>
        <path id="Path_23" data-name="Path 23" d="M377.958,330.43h-1.087c-.33,0-.56-.168-.493-.484a.666.666,0,0,1,.7-.484H380.4c.33,0,.56.169.493.484a.665.665,0,0,1-.7.484h-1.087l-.766,3.6a.7.7,0,0,1-.7.575.429.429,0,0,1-.453-.575Z" transform="translate(-354.849 -329.343)" fill="#5b76a2"/>
        <path id="Path_24" data-name="Path 24" d="M394.16,330.135a.747.747,0,0,1,.817-.674h1.915c1.368,0,1.573.751,1.434,1.4a1.588,1.588,0,0,1-1.128,1.213l0,.014c.572.084.586.512.477,1.024a6.663,6.663,0,0,0-.067,1.038.659.659,0,0,1-.635.449c-.631,0-.551-.61-.507-.814.188-.883.1-1.241-.528-1.241H394.8l-.315,1.48a.7.7,0,0,1-.7.575.43.43,0,0,1-.453-.575Zm.816,1.571h1.15c.435,0,.894-.112,1.014-.68.115-.54-.185-.68-.69-.68h-1.185Z" transform="translate(-365.855 -329.343)" fill="#5b76a2"/>
        <path id="Path_25" data-name="Path 25" d="M414.1,329.553a.663.663,0,0,1,.636-.351h.273c.26,0,.478.063.528.421l.567,3.864a1.445,1.445,0,0,1,.018.442.683.683,0,0,1-.648.5c-.252,0-.415-.091-.452-.316l-.116-.841h-1.852l-.481.841a.591.591,0,0,1-.579.316.388.388,0,0,1-.426-.5,1.934,1.934,0,0,1,.207-.442Zm.5.9h-.014l-1.111,2.027h1.347Z" transform="translate(-377.703 -329.174)" fill="#5b76a2"/>
        <path id="Path_26" data-name="Path 26" d="M434.4,329.122c1.318,0,1.865.828,1.76,1.319a.6.6,0,0,1-.629.519c-.666,0-.276-.912-1.328-.912a1.914,1.914,0,0,0-1.684,1.718c-.2.919,0,1.719.995,1.719.9,0,1.09-.968,1.644-.968.28,0,.527.161.467.442a2.382,2.382,0,0,1-2.308,1.452c-1.578,0-2.318-.9-1.948-2.644A3.14,3.14,0,0,1,434.4,329.122Z" transform="translate(-390.507 -329.122)" fill="#5b76a2"/>
        <path id="Path_27" data-name="Path 27" d="M452.761,330.43h-1.087c-.33,0-.56-.168-.493-.484a.666.666,0,0,1,.7-.484H455.2c.329,0,.56.169.493.484a.665.665,0,0,1-.7.484h-1.087l-.765,3.6a.7.7,0,0,1-.7.575.429.429,0,0,1-.453-.575Z" transform="translate(-403.425 -329.343)" fill="#5b76a2"/>
        <path id="Path_28" data-name="Path 28" d="M469,329.777a.7.7,0,0,1,.7-.575.43.43,0,0,1,.453.575l-.868,4.082a.7.7,0,0,1-.7.575.429.429,0,0,1-.453-.575Z" transform="translate(-414.432 -329.174)" fill="#5b76a2"/>
        <path id="Path_29" data-name="Path 29" d="M480.029,329.876a.767.767,0,0,1,.866-.674.5.5,0,0,1,.511.3l1.322,3.247h.014l.637-2.995a.641.641,0,0,1,.672-.554c.344,0,.515.183.436.554l-.844,3.963a.784.784,0,0,1-.833.716c-.365,0-.467-.077-.565-.309l-1.327-3.156H480.9l-.62,2.911a.64.64,0,0,1-.672.554c-.344,0-.515-.182-.436-.554Z" transform="translate(-421.601 -329.174)" fill="#5b76a2"/>
        <path id="Path_30" data-name="Path 30" d="M504.629,334a.5.5,0,0,1-.475.386c-.33,0-.378-.2-.352-.652a2.217,2.217,0,0,1-1.645.68c-1.781,0-2.2-1.227-1.9-2.644a3.144,3.144,0,0,1,3.193-2.644c1.276,0,1.794.765,1.7,1.213a.615.615,0,0,1-.647.505c-.568,0-.189-.793-1.312-.793-.792,0-1.527.519-1.8,1.8-.212,1,.133,1.683,1.072,1.683a1.511,1.511,0,0,0,1.419-1.031h-.751c-.245,0-.5-.091-.425-.441a.52.52,0,0,1,.543-.442h1.417c.337,0,.434.168.367.484Z" transform="translate(-435.245 -329.122)" fill="#5b76a2"/>
      </g>
    </g>
    <path id="Path_31" data-name="Path 31" d="M371.522,231.965a23.557,23.557,0,0,1-5.052.479,25.565,25.565,0,0,0,1.118-3.054,19.977,19.977,0,0,0,.785-4.894,16.642,16.642,0,0,0-.591-5.013c-.115-.407-.265-.8-.4-1.2l-.209-.6-.265-.574c-.182-.379-.347-.768-.548-1.135l-.645-1.074a18.915,18.915,0,0,0-3.169-3.737,22.11,22.11,0,0,0-1.839-1.537c-.308-.255-.647-.453-.969-.681s-.647-.452-.984-.648a37.292,37.292,0,0,0-8.4-3.7,67.176,67.176,0,0,0-17.608-2.675c-2.949-.075-5.891-.01-8.821.164s-5.845.5-8.745.892-5.775.936-8.635,1.524c-2.853.625-5.69,1.31-8.495,2.11a128.713,128.713,0,0,0-16.454,5.856c-2.675,1.145-5.291,2.426-7.869,3.769-1.275.7-2.564,1.371-3.808,2.125-.624.372-1.26.724-1.874,1.114l-1.842,1.164a69.642,69.642,0,0,0-13.395,11.042,69.317,69.317,0,0,1,13.742-10.483l1.871-1.085c.622-.363,1.267-.688,1.9-1.034,1.26-.7,2.564-1.316,3.852-1.961,2.6-1.233,5.238-2.4,7.926-3.434a127.146,127.146,0,0,1,16.453-5.164c2.792-.683,5.608-1.251,8.431-1.759,2.83-.471,5.666-.891,8.516-1.173s5.7-.489,8.556-.547,5.7-.017,8.538.163a63.615,63.615,0,0,1,16.525,3.136,33.254,33.254,0,0,1,7.326,3.555c.283.178.536.387.806.578s.546.377.785.6a17.764,17.764,0,0,1,1.441,1.3,14.4,14.4,0,0,1,2.323,2.951l.444.8c.136.272.237.559.361.835l.178.417.128.434c.082.29.184.574.255.866a11.818,11.818,0,0,1,.28,3.592,15,15,0,0,1-.732,3.631,20.511,20.511,0,0,1-1,2.435,22.513,22.513,0,0,1-3.048-4.268.2.2,0,0,0-.377.118l.885,15.071a.272.272,0,0,0,.437.2l12.07-9.128A.2.2,0,0,0,371.522,231.965Z" transform="translate(-1.948)" fill="url(#linear-gradient)"/>
    <path id="Path_32" data-name="Path 32" d="M355.019,300.687l-1.871,1.085c-.622.363-1.267.688-1.9,1.034-1.26.7-2.564,1.316-3.852,1.961-2.6,1.233-5.238,2.4-7.927,3.434a127.129,127.129,0,0,1-16.453,5.164c-2.792.683-5.608,1.251-8.431,1.759-2.83.471-5.666.891-8.516,1.173s-5.7.489-8.556.547-5.7.017-8.538-.163a63.633,63.633,0,0,1-16.525-3.136,33.27,33.27,0,0,1-7.326-3.556c-.283-.178-.536-.387-.806-.578s-.546-.377-.785-.6a17.771,17.771,0,0,1-1.441-1.3,14.4,14.4,0,0,1-2.323-2.951l-.444-.8c-.136-.272-.238-.559-.361-.835l-.179-.417-.128-.434c-.082-.29-.184-.574-.255-.866a11.817,11.817,0,0,1-.28-3.592,15,15,0,0,1,.732-3.631,20.517,20.517,0,0,1,1-2.435,22.515,22.515,0,0,1,3.048,4.268.2.2,0,0,0,.377-.118l-.885-15.071a.272.272,0,0,0-.436-.2l-12.07,9.128a.2.2,0,0,0,.156.363,23.581,23.581,0,0,1,5.052-.479,25.566,25.566,0,0,0-1.118,3.054,19.993,19.993,0,0,0-.785,4.894,16.642,16.642,0,0,0,.591,5.013c.115.407.265.8.4,1.2l.209.6.265.574c.182.379.347.768.548,1.135l.645,1.074a18.911,18.911,0,0,0,3.169,3.737,22.107,22.107,0,0,0,1.839,1.537c.308.255.647.453.969.681s.647.452.984.648a37.305,37.305,0,0,0,8.4,3.7,67.18,67.18,0,0,0,17.608,2.675c2.949.075,5.891.01,8.821-.164s5.845-.5,8.745-.892,5.775-.936,8.635-1.524c2.853-.625,5.691-1.31,8.495-2.11a128.7,128.7,0,0,0,16.454-5.856c2.675-1.145,5.291-2.426,7.869-3.769,1.275-.7,2.564-1.371,3.808-2.125.624-.372,1.26-.724,1.874-1.114l1.842-1.164A69.64,69.64,0,0,0,368.761,290.2,69.31,69.31,0,0,1,355.019,300.687Z" transform="translate(0 -50.966)" fill="url(#linear-gradient-2)"/>
  </g>
</svg>
