<svg xmlns="http://www.w3.org/2000/svg" width="80" height="80" viewBox="0 0 80 80">
  <g id="Icon_circle" data-name="Icon circle" transform="translate(-0.135)">
    <circle id="Oval" cx="40" cy="40" r="40" transform="translate(0.135)" fill="#004885"/>
    <g id="np_clean_3622896_FFFFFF" transform="translate(15.315 12.496)">
      <path id="Path_38" data-name="Path 38" d="M11.5,15.9a3.4,3.4,0,0,1-3.4-3.4,3.408,3.408,0,0,1-3.4,3.4l.928.232A3.269,3.269,0,0,1,8.093,19.31a3.4,3.4,0,0,1,3.4-3.4Z" transform="translate(-4.688 -8.244)" fill="#fff"/>
      <path id="Path_39" data-name="Path 39" d="M33.372,8.093a3.4,3.4,0,0,1-3.4-3.4,3.408,3.408,0,0,1-3.4,3.4l.928.232A3.269,3.269,0,0,1,29.967,11.5a3.4,3.4,0,0,1,3.4-3.4Z" transform="translate(-14.645 -4.688)" fill="#fff"/>
      <path id="Path_40" data-name="Path 40" d="M67.748,11.217a3.4,3.4,0,0,1-3.4-3.4,3.408,3.408,0,0,1-3.4,3.4l.928.232a3.269,3.269,0,0,1,2.477,3.173,3.4,3.4,0,0,1,3.4-3.4Z" transform="translate(-30.294 -6.11)" fill="#fff"/>
      <path id="Path_41" data-name="Path 41" d="M50.56,25.28a3.4,3.4,0,0,1-3.4-3.4,3.408,3.408,0,0,1-3.4,3.4l.928.232a3.269,3.269,0,0,1,2.477,3.173,3.4,3.4,0,0,1,3.4-3.4Z" transform="translate(-22.47 -12.512)" fill="#fff"/>
      <path id="Path_42" data-name="Path 42" d="M86.217,4.687a3.408,3.408,0,0,1-3.4,3.4l.928.232A3.269,3.269,0,0,1,86.217,11.5a3.4,3.4,0,0,1,3.4-3.4,3.4,3.4,0,0,1-3.4-3.4Z" transform="translate(-40.251 -4.687)" fill="#fff"/>
      <path id="Path_43" data-name="Path 43" d="M25.829,35.36V53.483A2.512,2.512,0,0,1,25.4,54.9l-.562.843a4.21,4.21,0,0,0-.715,2.358v6.631H8.8V58.48a4.254,4.254,0,0,0-1.243-3.013L7,54.9a2.553,2.553,0,0,1-.749-1.8V40.042H7.1a1.707,1.707,0,0,1,1.7,1.7v5.107a.85.85,0,0,0,.851.851h.851a2.561,2.561,0,0,1,2.554,2.554v.851a.851.851,0,0,0,1.7,0v-.851A4.258,4.258,0,0,0,10.507,46V31.1a1.27,1.27,0,0,1,.375-.9.751.751,0,0,1,.145-.128,1.247,1.247,0,0,1,.758-.247,1.276,1.276,0,0,1,1.251,1,1.458,1.458,0,0,1,.026.272v10.64a.851.851,0,1,0,1.7,0V29.4a1.277,1.277,0,0,1,2.554,0V41.744a.851.851,0,1,0,1.7,0V31.1a1.277,1.277,0,0,1,2.554,0V41.668a.851.851,0,0,0,1.7,0V35.36a1.277,1.277,0,0,1,2.554,0Z" transform="translate(-5.399 -15.357)" fill="#fff"/>
      <path id="Path_44" data-name="Path 44" d="M76.08,55.466l.562-.562a2.553,2.553,0,0,0,.749-1.8V40.041h-.851a1.707,1.707,0,0,0-1.7,1.7v5.107a.85.85,0,0,1-.851.851h-.851a2.561,2.561,0,0,0-2.554,2.554v.851a.851.851,0,0,1-1.7,0v-.851A4.255,4.255,0,0,1,73.135,46V31.1a1.27,1.27,0,0,0-.375-.9.735.735,0,0,0-.119-.111,1.283,1.283,0,0,0-2.034.758,1.031,1.031,0,0,0-.026.255v10.64a.851.851,0,1,1-1.7,0V29.4a1.277,1.277,0,0,0-2.554,0V41.744a.851.851,0,1,1-1.7,0V31.1a1.277,1.277,0,0,0-2.554,0V41.667a.851.851,0,1,1-1.7,0V35.36a1.277,1.277,0,1,0-2.554,0V53.483a2.556,2.556,0,0,0,.426,1.422l.562.826a4.271,4.271,0,0,1,.715,2.366v6.631H74.837V58.479a4.254,4.254,0,0,1,1.243-3.013Z" transform="translate(-28.871 -15.356)" fill="#fff"/>
    </g>
  </g>
</svg>
