<svg xmlns="http://www.w3.org/2000/svg" width="80" height="80" viewBox="0 0 80 80">
  <g id="Icon_circle" data-name="Icon circle" transform="translate(-0.135)">
    <circle id="Oval" cx="40" cy="40" r="40" transform="translate(0.135)" fill="#004885"/>
    <path id="np_steel_2336463_FFFFFF" d="M44.11,10.928a1.322,1.322,0,0,0,1.321-1.321V6.321A1.322,1.322,0,0,0,44.11,5H12.935a1.322,1.322,0,0,0-1.321,1.321V9.606a1.322,1.322,0,0,0,1.321,1.321h6.919a5.152,5.152,0,0,1,5.153,5.153V33.56a5.154,5.154,0,0,1-5.153,5.153H12.936a1.322,1.322,0,0,0-1.321,1.321v3.285a1.322,1.322,0,0,0,1.321,1.321H44.11a1.322,1.322,0,0,0,1.321-1.321V40.033a1.322,1.322,0,0,0-1.321-1.321H37.192a5.153,5.153,0,0,1-5.153-5.153V16.079a5.153,5.153,0,0,1,5.153-5.153Z" transform="translate(11.612 15.18)" fill="#fff"/>
  </g>
</svg>
