<svg xmlns="http://www.w3.org/2000/svg" width="80" height="80" viewBox="0 0 80 80">
  <g id="Icon_circle" data-name="Icon circle" transform="translate(-0.391)">
    <circle id="Oval" cx="40" cy="40" r="40" transform="translate(0.391)" fill="#004885"/>
    <g id="np_recycle_3129148_FFFFFF" transform="translate(16.399 17.545)">
      <path id="Path_35" data-name="Path 35" d="M48.895,21.129l5.337-9.563-3.752,2.22s-.687-1.215-2.324-4.016-3.7-2.7-3.7-2.7-7.4-.054-12.2,0-5.6,2.324-5.6,2.324L21.9,17.852l9.827,5.388,5.916-10.62,3.909,6.658-4.278,2.485Z" transform="translate(-13.605 -7.052)" fill="#fff"/>
      <path id="Path_36" data-name="Path 36" d="M15.393,50.7l3.8-6.763,4.28,2.536L17.137,36.7,6.2,36.858,10,38.971s-.687,1.215-2.324,4.016S7.2,47.531,7.2,47.531,10.849,53.924,13.28,58.1s4.808,3.7,4.808,3.7l9.719-.107-.21-11.2Z" transform="translate(-6.2 -21.037)" fill="#fff"/>
      <path id="Path_37" data-name="Path 37" d="M73.839,42.348,68.925,34l-9.614,5.811L65.6,50.272l-7.765.054.054-4.965L52.6,55.767l5.652,9.4L58.2,60.786h4.6c3.223,0,4.226-1.849,4.226-1.849s3.7-6.393,6.075-10.566c2.326-4.228.741-6.024.741-6.024Z" transform="translate(-28.088 -19.763)" fill="#fff"/>
    </g>
  </g>
</svg>
